<svg width="800" height="600" viewBox="0 0 800 600" fill="none" xmlns="http://www.w3.org/2000/svg">
  <rect width="800" height="600" fill="#F5F5F0"/>
  <path d="M200 100H600V500H200V100Z" fill="white" stroke="#333" stroke-width="4"/>
  <rect x="230" y="130" width="340" height="30" fill="#333"/>
  <rect x="230" y="180" width="160" height="120" fill="#DDD"/>
  <rect x="410" y="180" width="160" height="10" fill="#999"/>
  <rect x="410" y="200" width="160" height="10" fill="#999"/>
  <rect x="410" y="220" width="160" height="10" fill="#999"/>
  <rect x="410" y="240" width="160" height="10" fill="#999"/>
  <rect x="410" y="260" width="160" height="10" fill="#999"/>
  <rect x="410" y="280" width="100" height="10" fill="#999"/>
  
  <rect x="230" y="320" width="340" height="10" fill="#999"/>
  <rect x="230" y="340" width="340" height="10" fill="#999"/>
  <rect x="230" y="360" width="340" height="10" fill="#999"/>
  <rect x="230" y="380" width="340" height="10" fill="#999"/>
  <rect x="230" y="400" width="340" height="10" fill="#999"/>
  <rect x="230" y="420" width="200" height="10" fill="#999"/>
  
  <rect x="230" y="450" width="340" height="2" fill="#CCC"/>
</svg>
